<svg width="16" height="16" viewBox="0 0 12 12" fill="none" xmlns="http://www.w3.org/2000/svg">
<path d="M0 5H1V6H0ZM1 4H2V5H1ZM1 5H2V6H1ZM2 3H3V4H2ZM2 5H3V6H2ZM2 6H3V7H2ZM2 7H3V8H2ZM2 8H3V9H2ZM2 9H3V10H2ZM2 10H3V11H2ZM2 11H3V12H2ZM3 2H4V3H3ZM3 11H4V12H3ZM4 1H5V2H4ZM4 11H5V12H4ZM5 0H6V1H5ZM5 8H6V9H5ZM5 9H6V10H5ZM5 10H6V11H5ZM5 11H6V12H5ZM6 0H7V1H6ZM6 8H7V9H6ZM6 9H7V10H6ZM6 10H7V11H6ZM6 11H7V12H6ZM7 1H8V2H7ZM7 11H8V12H7ZM8 2H9V3H8ZM8 11H9V12H8ZM9 3H10V4H9ZM9 5H10V6H9ZM9 6H10V7H9ZM9 7H10V8H9ZM9 8H10V9H9ZM9 9H10V10H9ZM9 10H10V11H9ZM9 11H10V12H9ZM10 4H11V5H10ZM10 5H11V6H10ZM11 5H12V6H11Z" fill="#A5A5A5"/>
</svg>
